<svg xmlns="http://www.w3.org/2000/svg" viewBox="0 0 820 300" width="820" height="300" role="img" aria-label="Latenza hello=1 per categoria di destinazione con target-burst-capacity 0: locale, master, terzo nodo, al crescere del carico" style="font-family:'IBM Plex Sans',Helvetica,Arial,sans-serif">
<rect width="820" height="300" fill="#fcfcfb"/>

<text x="52" y="18" fill="#0b0b0b" font-size="13" font-weight="600">p50</text>
<line x1="52" x2="288" y1="254.0" y2="254.0" stroke="#e4e3df" stroke-width="1"/>
<text x="45" y="258.0" text-anchor="end" fill="#52514e" font-size="11">1</text>
<line x1="52" x2="288" y1="201.5" y2="201.5" stroke="#e4e3df" stroke-width="1"/>
<text x="45" y="205.5" text-anchor="end" fill="#52514e" font-size="11">3</text>
<line x1="52" x2="288" y1="144.0" y2="144.0" stroke="#e4e3df" stroke-width="1"/>
<text x="45" y="148.0" text-anchor="end" fill="#52514e" font-size="11">10</text>
<line x1="52" x2="288" y1="91.5" y2="91.5" stroke="#e4e3df" stroke-width="1"/>
<text x="45" y="95.5" text-anchor="end" fill="#52514e" font-size="11">30</text>
<line x1="52" x2="288" y1="34.0" y2="34.0" stroke="#e4e3df" stroke-width="1"/>
<text x="45" y="38.0" text-anchor="end" fill="#52514e" font-size="11">100</text>
<line x1="52" x2="288" y1="254" y2="254" stroke="#a8a69f" stroke-width="1"/>
<line x1="88.9" x2="88.9" y1="254" y2="258" stroke="#a8a69f"/>
<text x="88.9" y="271" text-anchor="middle" fill="#52514e" font-size="11">500</text>
<line x1="125.8" x2="125.8" y1="254" y2="258" stroke="#a8a69f"/>
<text x="125.8" y="271" text-anchor="middle" fill="#52514e" font-size="11">1000</text>
<line x1="162.6" x2="162.6" y1="254" y2="258" stroke="#a8a69f"/>
<text x="162.6" y="271" text-anchor="middle" fill="#52514e" font-size="11">1500</text>
<line x1="199.5" x2="199.5" y1="254" y2="258" stroke="#a8a69f"/>
<text x="199.5" y="271" text-anchor="middle" fill="#52514e" font-size="11">2000</text>
<line x1="236.4" x2="236.4" y1="254" y2="258" stroke="#a8a69f"/>
<text x="236.4" y="271" text-anchor="middle" fill="#52514e" font-size="11">2500</text>
<line x1="273.3" x2="273.3" y1="254" y2="258" stroke="#a8a69f"/>
<text x="273.3" y="271" text-anchor="middle" fill="#52514e" font-size="11">3000</text>
<text x="170.0" y="292" text-anchor="middle" fill="#52514e" font-size="11">carico offerto (req/s)</text>
<text x="13" y="144.0" transform="rotate(-90 13 144.0)" text-anchor="middle" fill="#52514e" font-size="11">ms (scala log)</text>
<polyline points="70.4,218.6 88.9,231.5 125.8,231.5 162.6,228.7 199.5,220.9 236.4,201.5 273.3,157.7" fill="none" stroke="#2a78d6" stroke-width="2" stroke-linejoin="round" stroke-linecap="round"/>
<circle cx="70.4" cy="218.6" r="4.2" fill="#2a78d6" stroke="#fcfcfb" stroke-width="2"/>
<circle cx="88.9" cy="231.5" r="4.2" fill="#2a78d6" stroke="#fcfcfb" stroke-width="2"/>
<circle cx="125.8" cy="231.5" r="4.2" fill="#2a78d6" stroke="#fcfcfb" stroke-width="2"/>
<circle cx="162.6" cy="228.7" r="4.2" fill="#2a78d6" stroke="#fcfcfb" stroke-width="2"/>
<circle cx="199.5" cy="220.9" r="4.2" fill="#2a78d6" stroke="#fcfcfb" stroke-width="2"/>
<circle cx="236.4" cy="201.5" r="4.2" fill="#2a78d6" stroke="#fcfcfb" stroke-width="2"/>
<circle cx="273.3" cy="157.7" r="4.2" fill="#2a78d6" stroke="#fcfcfb" stroke-width="2"/>
<polyline points="70.4,198.4 88.9,210.2 125.8,216.3 162.6,216.3 199.5,214.2 236.4,210.2 273.3,204.8" fill="none" stroke="#eb6834" stroke-width="2" stroke-linejoin="round" stroke-linecap="round"/>
<rect x="66.2" y="194.2" width="8.4" height="8.4" rx="1" fill="#eb6834" stroke="#fcfcfb" stroke-width="2"/>
<rect x="84.7" y="206.0" width="8.4" height="8.4" rx="1" fill="#eb6834" stroke="#fcfcfb" stroke-width="2"/>
<rect x="121.6" y="212.1" width="8.4" height="8.4" rx="1" fill="#eb6834" stroke="#fcfcfb" stroke-width="2"/>
<rect x="158.4" y="212.1" width="8.4" height="8.4" rx="1" fill="#eb6834" stroke="#fcfcfb" stroke-width="2"/>
<rect x="195.3" y="210.0" width="8.4" height="8.4" rx="1" fill="#eb6834" stroke="#fcfcfb" stroke-width="2"/>
<rect x="232.2" y="206.0" width="8.4" height="8.4" rx="1" fill="#eb6834" stroke="#fcfcfb" stroke-width="2"/>
<rect x="269.1" y="200.6" width="8.4" height="8.4" rx="1" fill="#eb6834" stroke="#fcfcfb" stroke-width="2"/>
<polyline points="70.4,210.2 88.9,220.9 125.8,223.3 162.6,223.3 199.5,220.9 236.4,220.9 273.3,218.6" fill="none" stroke="#1baf7a" stroke-width="2" stroke-linejoin="round" stroke-linecap="round"/>
<path d="M70.4,205.0 L75.7,214.4 L65.1,214.4 Z" fill="#1baf7a" stroke="#fcfcfb" stroke-width="2"/>
<path d="M88.9,215.7 L94.2,225.1 L83.6,225.1 Z" fill="#1baf7a" stroke="#fcfcfb" stroke-width="2"/>
<path d="M125.8,218.1 L131.1,227.5 L120.5,227.5 Z" fill="#1baf7a" stroke="#fcfcfb" stroke-width="2"/>
<path d="M162.6,218.1 L167.9,227.5 L157.3,227.5 Z" fill="#1baf7a" stroke="#fcfcfb" stroke-width="2"/>
<path d="M199.5,215.7 L204.8,225.1 L194.2,225.1 Z" fill="#1baf7a" stroke="#fcfcfb" stroke-width="2"/>
<path d="M236.4,215.7 L241.7,225.1 L231.1,225.1 Z" fill="#1baf7a" stroke="#fcfcfb" stroke-width="2"/>
<path d="M273.3,213.4 L278.6,222.8 L268.0,222.8 Z" fill="#1baf7a" stroke="#fcfcfb" stroke-width="2"/>
<circle cx="302.0" cy="157.7" r="4.2" fill="#2a78d6" stroke="#fcfcfb" stroke-width="2"/>
<text x="311" y="161.7" fill="#0b0b0b" font-size="11">locale</text>
<rect x="297.8" y="200.6" width="8.4" height="8.4" rx="1" fill="#eb6834" stroke="#fcfcfb" stroke-width="2"/>
<text x="311" y="208.8" fill="#0b0b0b" font-size="11">master</text>
<path d="M302.0,213.6 L307.3,223.0 L296.7,223.0 Z" fill="#1baf7a" stroke="#fcfcfb" stroke-width="2"/>
<text x="311" y="222.8" fill="#0b0b0b" font-size="11">terzo</text>
<text x="462" y="18" fill="#0b0b0b" font-size="13" font-weight="600">p99</text>
<line x1="462" x2="698" y1="242.5" y2="242.5" stroke="#e4e3df" stroke-width="1"/>
<text x="455" y="246.5" text-anchor="end" fill="#52514e" font-size="11">3</text>
<line x1="462" x2="698" y1="208.7" y2="208.7" stroke="#e4e3df" stroke-width="1"/>
<text x="455" y="212.7" text-anchor="end" fill="#52514e" font-size="11">10</text>
<line x1="462" x2="698" y1="177.8" y2="177.8" stroke="#e4e3df" stroke-width="1"/>
<text x="455" y="181.8" text-anchor="end" fill="#52514e" font-size="11">30</text>
<line x1="462" x2="698" y1="144.0" y2="144.0" stroke="#e4e3df" stroke-width="1"/>
<text x="455" y="148.0" text-anchor="end" fill="#52514e" font-size="11">100</text>
<line x1="462" x2="698" y1="113.1" y2="113.1" stroke="#e4e3df" stroke-width="1"/>
<text x="455" y="117.1" text-anchor="end" fill="#52514e" font-size="11">300</text>
<line x1="462" x2="698" y1="79.3" y2="79.3" stroke="#e4e3df" stroke-width="1"/>
<text x="455" y="83.3" text-anchor="end" fill="#52514e" font-size="11">1 s</text>
<line x1="462" x2="698" y1="48.4" y2="48.4" stroke="#e4e3df" stroke-width="1"/>
<text x="455" y="52.4" text-anchor="end" fill="#52514e" font-size="11">3 s</text>
<line x1="462" x2="698" y1="254" y2="254" stroke="#a8a69f" stroke-width="1"/>
<line x1="498.9" x2="498.9" y1="254" y2="258" stroke="#a8a69f"/>
<text x="498.9" y="271" text-anchor="middle" fill="#52514e" font-size="11">500</text>
<line x1="535.8" x2="535.8" y1="254" y2="258" stroke="#a8a69f"/>
<text x="535.8" y="271" text-anchor="middle" fill="#52514e" font-size="11">1000</text>
<line x1="572.6" x2="572.6" y1="254" y2="258" stroke="#a8a69f"/>
<text x="572.6" y="271" text-anchor="middle" fill="#52514e" font-size="11">1500</text>
<line x1="609.5" x2="609.5" y1="254" y2="258" stroke="#a8a69f"/>
<text x="609.5" y="271" text-anchor="middle" fill="#52514e" font-size="11">2000</text>
<line x1="646.4" x2="646.4" y1="254" y2="258" stroke="#a8a69f"/>
<text x="646.4" y="271" text-anchor="middle" fill="#52514e" font-size="11">2500</text>
<line x1="683.3" x2="683.3" y1="254" y2="258" stroke="#a8a69f"/>
<text x="683.3" y="271" text-anchor="middle" fill="#52514e" font-size="11">3000</text>
<text x="580.0" y="292" text-anchor="middle" fill="#52514e" font-size="11">carico offerto (req/s)</text>
<text x="423" y="144.0" transform="rotate(-90 423 144.0)" text-anchor="middle" fill="#52514e" font-size="11">ms (scala log)</text>
<polyline points="480.4,239.0 498.9,237.4 535.8,227.6 572.6,202.4 609.5,185.7 646.4,153.5 683.3,139.0" fill="none" stroke="#2a78d6" stroke-width="2" stroke-linejoin="round" stroke-linecap="round"/>
<circle cx="480.4" cy="239.0" r="4.2" fill="#2a78d6" stroke="#fcfcfb" stroke-width="2"/>
<circle cx="498.9" cy="237.4" r="4.2" fill="#2a78d6" stroke="#fcfcfb" stroke-width="2"/>
<circle cx="535.8" cy="227.6" r="4.2" fill="#2a78d6" stroke="#fcfcfb" stroke-width="2"/>
<circle cx="572.6" cy="202.4" r="4.2" fill="#2a78d6" stroke="#fcfcfb" stroke-width="2"/>
<circle cx="609.5" cy="185.7" r="4.2" fill="#2a78d6" stroke="#fcfcfb" stroke-width="2"/>
<circle cx="646.4" cy="153.5" r="4.2" fill="#2a78d6" stroke="#fcfcfb" stroke-width="2"/>
<circle cx="683.3" cy="139.0" r="4.2" fill="#2a78d6" stroke="#fcfcfb" stroke-width="2"/>
<polyline points="480.4,228.7 498.9,231.8 535.8,223.1 572.6,205.5 609.5,196.0 646.4,159.8 683.3,144.6" fill="none" stroke="#eb6834" stroke-width="2" stroke-linejoin="round" stroke-linecap="round"/>
<rect x="476.2" y="224.5" width="8.4" height="8.4" rx="1" fill="#eb6834" stroke="#fcfcfb" stroke-width="2"/>
<rect x="494.7" y="227.6" width="8.4" height="8.4" rx="1" fill="#eb6834" stroke="#fcfcfb" stroke-width="2"/>
<rect x="531.6" y="218.9" width="8.4" height="8.4" rx="1" fill="#eb6834" stroke="#fcfcfb" stroke-width="2"/>
<rect x="568.4" y="201.3" width="8.4" height="8.4" rx="1" fill="#eb6834" stroke="#fcfcfb" stroke-width="2"/>
<rect x="605.3" y="191.8" width="8.4" height="8.4" rx="1" fill="#eb6834" stroke="#fcfcfb" stroke-width="2"/>
<rect x="642.2" y="155.6" width="8.4" height="8.4" rx="1" fill="#eb6834" stroke="#fcfcfb" stroke-width="2"/>
<rect x="679.1" y="140.4" width="8.4" height="8.4" rx="1" fill="#eb6834" stroke="#fcfcfb" stroke-width="2"/>
<polyline points="480.4,234.4 498.9,238.2 535.8,233.1 572.6,226.5 609.5,223.1 646.4,210.7 683.3,177.1" fill="none" stroke="#1baf7a" stroke-width="2" stroke-linejoin="round" stroke-linecap="round"/>
<path d="M480.4,229.2 L485.7,238.6 L475.1,238.6 Z" fill="#1baf7a" stroke="#fcfcfb" stroke-width="2"/>
<path d="M498.9,233.0 L504.2,242.4 L493.6,242.4 Z" fill="#1baf7a" stroke="#fcfcfb" stroke-width="2"/>
<path d="M535.8,227.9 L541.1,237.3 L530.5,237.3 Z" fill="#1baf7a" stroke="#fcfcfb" stroke-width="2"/>
<path d="M572.6,221.3 L577.9,230.7 L567.3,230.7 Z" fill="#1baf7a" stroke="#fcfcfb" stroke-width="2"/>
<path d="M609.5,217.9 L614.8,227.3 L604.2,227.3 Z" fill="#1baf7a" stroke="#fcfcfb" stroke-width="2"/>
<path d="M646.4,205.5 L651.7,214.9 L641.1,214.9 Z" fill="#1baf7a" stroke="#fcfcfb" stroke-width="2"/>
<path d="M683.3,171.9 L688.6,181.3 L678.0,181.3 Z" fill="#1baf7a" stroke="#fcfcfb" stroke-width="2"/>
<circle cx="712.0" cy="139.0" r="4.2" fill="#2a78d6" stroke="#fcfcfb" stroke-width="2"/>
<text x="721" y="143.0" fill="#0b0b0b" font-size="11">locale</text>
<rect x="707.8" y="148.8" width="8.4" height="8.4" rx="1" fill="#eb6834" stroke="#fcfcfb" stroke-width="2"/>
<text x="721" y="157.0" fill="#0b0b0b" font-size="11">master</text>
<path d="M712.0,171.9 L717.3,181.3 L706.7,181.3 Z" fill="#1baf7a" stroke="#fcfcfb" stroke-width="2"/>
<text x="721" y="181.1" fill="#0b0b0b" font-size="11">terzo</text>
</svg>